# xmcd CD database file
#
# Track frame offsets:
#	150
#	26785
#	49077
#	64915
#	86935
#	111137
#	136842
#	158060
#	180747
#	202890
#	222950
#	245600
#
# Disc length: 3577 seconds
#
# Revision: 7
# Processed by: cddbd v1.5PL3 Copyright (c) Steve Scherf et al.
# Submitted via: CDex 1.51
#
DISCID=ab0df70c
DTITLE=小柳ゆき - KOYANAGI the BALLADS 1999-2001(Piano Instrumental Side)
DYEAR=2001
DGENRE=Blues
TTITLE0=あなたのキスを数えましょう -You were mine- (piano version)
TTITLE1=Without You (piano version)
TTITLE2=MANDY (piano version)
TTITLE3=be alive (piano version)
TTITLE4=fortune (piano version)
TTITLE5=precious time (piano version)
TTITLE6=beautiful world (piano version)
TTITLE7=wishing well (piano version)
TTITLE8=永遠 (piano version)
TTITLE9=my all.. (piano version)
TTITLE10=koyanagi the Christmas きよしこの夜〜ホワイト・クリスマス (piano version)
TTITLE11=Blue X'mas (piano version)
EXTD=YEAR: 2001
EXTT0=
EXTT1=
EXTT2=
EXTT3=
EXTT4=
EXTT5=
EXTT6=
EXTT7=
EXTT8=
EXTT9=
EXTT10=
EXTT11=
PLAYORDER=
